<?xml version="1.0" standalone="no"?>
<!DOCTYPE svg PUBLIC "-//W3C//DTD SVG 20010904//EN"
 "http://www.w3.org/TR/2001/REC-SVG-20010904/DTD/svg10.dtd">
<svg version="1.0" xmlns="http://www.w3.org/2000/svg"
 width="89.000000pt" height="331.000000pt" viewBox="0 0 89.000000 331.000000"
 preserveAspectRatio="xMidYMid meet">
<metadata>
Created by potrace 1.13, written by Peter Selinger 2001-2015
</metadata>
<g transform="translate(0.000000,331.000000) scale(0.100000,-0.100000)"
fill="#000000" stroke="none">
<path d="M692 3278 c-16 -16 -16 -90 0 -106 7 -7 30 -12 53 -12 52 0 65 13 65
65 0 52 -13 65 -65 65 -23 0 -46 -5 -53 -12z"/>
<path d="M682 3018 c-16 -16 -16 -90 0 -106 7 -7 30 -12 53 -12 52 0 65 13 65
65 0 52 -13 65 -65 65 -23 0 -46 -5 -53 -12z"/>
<path d="M582 2758 c-7 -7 -12 -30 -12 -53 0 -52 13 -65 65 -65 52 0 65 13 65
65 0 52 -13 65 -65 65 -23 0 -46 -5 -53 -12z"/>
<path d="M692 2498 c-16 -16 -16 -90 0 -106 7 -7 30 -12 53 -12 52 0 65 13 65
65 0 52 -13 65 -65 65 -23 0 -46 -5 -53 -12z"/>
<path d="M592 2238 c-7 -7 -12 -30 -12 -53 0 -52 13 -65 65 -65 52 0 65 13 65
65 0 52 -13 65 -65 65 -23 0 -46 -5 -53 -12z"/>
<path d="M692 1978 c-16 -16 -16 -90 0 -106 7 -7 30 -12 53 -12 52 0 65 13 65
65 0 52 -13 65 -65 65 -23 0 -46 -5 -53 -12z"/>
<path d="M712 1718 c-16 -16 -16 -90 0 -106 7 -7 30 -12 53 -12 52 0 65 13 65
65 0 52 -13 65 -65 65 -23 0 -46 -5 -53 -12z"/>
<path d="M662 1458 c-16 -16 -16 -90 0 -106 7 -7 30 -12 53 -12 52 0 65 13 65
65 0 52 -13 65 -65 65 -23 0 -46 -5 -53 -12z"/>
<path d="M692 1198 c-16 -16 -16 -90 0 -106 7 -7 30 -12 53 -12 23 0 46 5 53
12 16 16 16 90 0 106 -16 16 -90 16 -106 0z"/>
<path d="M712 938 c-16 -16 -16 -90 0 -106 7 -7 30 -12 53 -12 23 0 46 5 53
12 16 16 16 90 0 106 -16 16 -90 16 -106 0z"/>
<path d="M672 678 c-16 -16 -16 -90 0 -106 16 -16 90 -16 106 0 16 16 16 90 0
106 -16 16 -90 16 -106 0z"/>
<path d="M732 418 c-16 -16 -16 -90 0 -106 16 -16 90 -16 106 0 16 16 16 90 0
106 -7 7 -30 12 -53 12 -23 0 -46 -5 -53 -12z"/>
<path d="M712 158 c-16 -16 -16 -90 0 -106 16 -16 90 -16 106 0 16 16 16 90 0
106 -7 7 -30 12 -53 12 -23 0 -46 -5 -53 -12z"/>
</g>
</svg>
